<mxfile host="app.diagrams.net" modified="2023-10-04T20:41:15.213Z" agent="Mozilla/5.0 (Windows NT 10.0; Win64; x64) AppleWebKit/537.36 (KHTML, like Gecko) Chrome/117.0.0.0 Safari/537.36" version="22.0.2" etag="GZyiiiO47K3XkUW_6OY0" type="github">
  <diagram name="PÃ¡gina-1" id="MiV6xRC__Niy-BOecJ6v">
    <mxGraphModel>
      <root>
        <mxCell id="0" />
        <mxCell id="1" parent="0" />
      </root>
    </mxGraphModel>
  </diagram>
</mxfile>
